<svg width="32" height="30" viewBox="0 0 32 30" fill="none" xmlns="http://www.w3.org/2000/svg">
<path fill-rule="evenodd" clip-rule="evenodd" d="M7.05691 6.55335C7.57761 6.07206 8.42183 6.07206 8.94252 6.55335L15.9997 13.0764L23.0569 6.55335C23.5776 6.07206 24.4218 6.07206 24.9425 6.55335C25.4632 7.03463 25.4632 7.81495 24.9425 8.29624L17.8853 14.8193L24.9425 21.3423C25.4632 21.8236 25.4632 22.6039 24.9425 23.0852C24.4218 23.5664 23.5776 23.5664 23.0569 23.0852L15.9997 16.5621L8.94252 23.0852C8.42183 23.5664 7.57761 23.5664 7.05691 23.0852C6.53621 22.6039 6.53621 21.8236 7.05691 21.3423L14.1141 14.8193L7.05691 8.29624C6.53621 7.81495 6.53621 7.03463 7.05691 6.55335Z" fill="#3F3F55"/>
</svg>
