<svg width="61" height="61" viewBox="0 0 61 61" fill="none" xmlns="http://www.w3.org/2000/svg">
<rect x="0.194092" y="0.589905" width="59.8161" height="59.8161" rx="8.07781" fill="#455A64"/>
<g clip-path="url(#clip0_30_1548)">
<path d="M19.3352 19.7311H40.869C41.1863 19.7311 41.4906 19.8571 41.715 20.0815C41.9393 20.3058 42.0654 20.6101 42.0654 20.9274V40.0686C42.0654 40.3858 41.9393 40.6901 41.715 40.9145C41.4906 41.1388 41.1863 41.2649 40.869 41.2649H19.3352C19.018 41.2649 18.7137 41.1388 18.4893 40.9145C18.265 40.6901 18.1389 40.3858 18.1389 40.0686V20.9274C18.1389 20.6101 18.265 20.3058 18.4893 20.0815C18.7137 19.8571 19.018 19.7311 19.3352 19.7311ZM39.6727 24.8011L30.1883 33.295L20.5316 24.7748V38.8722H39.6727V24.8011ZM21.1429 22.1237L30.1751 30.0936L39.077 22.1237H21.1429Z" fill="white"/>
</g>
<defs>
<clipPath id="clip0_30_1548">
<rect width="28.7117" height="28.7117" fill="white" transform="translate(15.7466 16.1421)"/>
</clipPath>
</defs>
</svg>
