<svg width="61" height="61" viewBox="0 0 61 61" fill="none" xmlns="http://www.w3.org/2000/svg">
<rect x="0.194092" y="0.578125" width="59.8161" height="59.8161" rx="8.07781" fill="#455A64"/>
<g clip-path="url(#clip0_100_675)">
<path d="M38.4764 28.0935H39.6727C39.99 28.0935 40.2943 28.2196 40.5186 28.4439C40.743 28.6683 40.869 28.9726 40.869 29.2899V41.2531C40.869 41.5704 40.743 41.8746 40.5186 42.099C40.2943 42.3234 39.99 42.4494 39.6727 42.4494H20.5315C20.2142 42.4494 19.91 42.3234 19.6856 42.099C19.4612 41.8746 19.3352 41.5704 19.3352 41.2531V29.2899C19.3352 28.9726 19.4612 28.6683 19.6856 28.4439C19.91 28.2196 20.2142 28.0935 20.5315 28.0935H21.7278V26.8972C21.7278 25.7975 21.9445 24.7085 22.3653 23.6925C22.7861 22.6765 23.403 21.7533 24.1806 20.9757C24.9582 20.1981 25.8814 19.5812 26.8974 19.1604C27.9134 18.7396 29.0024 18.5229 30.1021 18.5229C31.2018 18.5229 32.2908 18.7396 33.3068 19.1604C34.3228 19.5812 35.246 20.1981 36.0236 20.9757C36.8012 21.7533 37.4181 22.6765 37.8389 23.6925C38.2598 24.7085 38.4764 25.7975 38.4764 26.8972V28.0935ZM21.7278 30.4862V40.0568H38.4764V30.4862H21.7278ZM28.9058 32.8788H31.2984V37.6641H28.9058V32.8788ZM36.0837 28.0935V26.8972C36.0837 25.3108 35.4535 23.7893 34.3317 22.6676C33.21 21.5458 31.6885 20.9156 30.1021 20.9156C28.5157 20.9156 26.9942 21.5458 25.8725 22.6676C24.7507 23.7893 24.1205 25.3108 24.1205 26.8972V28.0935H36.0837Z" fill="white"/>
</g>
<defs>
<clipPath id="clip0_100_675">
<rect width="28.7117" height="28.7117" fill="white" transform="translate(15.7463 16.1303)"/>
</clipPath>
</defs>
</svg>
