<svg xmlns="http://www.w3.org/2000/svg" width="40" height="24" viewBox="0 0 64 48" fill="none">
  <path fill-rule="evenodd" clip-rule="evenodd" d="M24.0034 42C24.0034 42.5304 24.2141 43.0391 24.5892 43.4142C24.9643 43.7893 25.473 44 26.0034 44H58.0034C58.5339 44 59.0426 43.7893 59.4176 43.4142C59.7927 43.0391 60.0034 42.5304 60.0034 42V6C60.0034 5.46957 59.7927 4.96086 59.4176 4.58579C59.0426 4.21071 58.5339 4 58.0034 4H26.0034C25.473 4 24.9643 4.21071 24.5892 4.58579C24.2141 4.96086 24.0034 5.46957 24.0034 6V14C24.0034 14.5304 23.7927 15.0391 23.4176 15.4142C23.0426 15.7893 22.5339 16 22.0034 16C21.473 16 20.9643 15.7893 20.5892 15.4142C20.2141 15.0391 20.0034 14.5304 20.0034 14V6C20.0034 4.4087 20.6356 2.88258 21.7608 1.75736C22.886 0.632141 24.4121 0 26.0034 0H58.0034C59.5947 0 61.1208 0.632141 62.2461 1.75736C63.3713 2.88258 64.0034 4.4087 64.0034 6V42C64.0034 43.5913 63.3713 45.1174 62.2461 46.2426C61.1208 47.3679 59.5947 48 58.0034 48H26.0034C24.4121 48 22.886 47.3679 21.7608 46.2426C20.6356 45.1174 20.0034 43.5913 20.0034 42V34C20.0034 33.4696 20.2141 32.9609 20.5892 32.5858C20.9643 32.2107 21.473 32 22.0034 32C22.5339 32 23.0426 32.2107 23.4176 32.5858C23.7927 32.9609 24.0034 33.4696 24.0034 34V42Z" fill="white"/>
  <path fill-rule="evenodd" clip-rule="evenodd" d="M0.587575 25.416C0.401322 25.2302 0.253551 25.0095 0.152725 24.7665C0.0518992 24.5235 0 24.263 0 24C0 23.7369 0.0518992 23.4764 0.152725 23.2334C0.253551 22.9904 0.401322 22.7697 0.587575 22.584L12.5876 10.584C12.7735 10.398 12.9943 10.2505 13.2372 10.1499C13.4802 10.0492 13.7406 9.99744 14.0036 9.99744C14.2666 9.99744 14.527 10.0492 14.7699 10.1499C15.0129 10.2505 15.2336 10.398 15.4196 10.584C15.6055 10.7699 15.753 10.9907 15.8537 11.2336C15.9543 11.4766 16.0061 11.737 16.0061 12C16.0061 12.2629 15.9543 12.5233 15.8537 12.7663C15.753 13.0093 15.6055 13.23 15.4196 13.416L6.83158 22H42.0036C42.534 22 43.0427 22.2107 43.4178 22.5858C43.7929 22.9608 44.0036 23.4695 44.0036 24C44.0036 24.5304 43.7929 25.0391 43.4178 25.4142C43.0427 25.7893 42.534 26 42.0036 26H6.83158L15.4196 34.584C15.6055 34.7699 15.753 34.9907 15.8537 35.2336C15.9543 35.4766 16.0061 35.737 16.0061 36C16.0061 36.2629 15.9543 36.5233 15.8537 36.7663C15.753 37.0093 15.6055 37.23 15.4196 37.416C15.2336 37.6019 15.0129 37.7494 14.7699 37.8501C14.527 37.9507 14.2666 38.0025 14.0036 38.0025C13.7406 38.0025 13.4802 37.9507 13.2372 37.8501C12.9943 37.7494 12.7735 37.6019 12.5876 37.416L0.587575 25.416Z" fill="white"/>
</svg>