<svg width="54" height="55" viewBox="0 0 54 55" fill="none" xmlns="http://www.w3.org/2000/svg">
<g filter="url(#filter0_d_76_1247)">
<circle cx="25.6777" cy="26.5" r="24.5" fill="#288578"/>
</g>
<path d="M25.6777 2C20.8321 2 16.0953 3.4369 12.0663 6.12899C8.03727 8.82109 4.89704 12.6475 3.0427 17.1243C1.18835 21.601 0.703168 26.5272 1.64851 31.2797C2.59384 36.0322 4.92724 40.3977 8.35363 43.8241C11.78 47.2505 16.1455 49.5839 20.898 50.5292C25.6506 51.4746 30.5767 50.9894 35.0535 49.135C39.5303 47.2807 43.3566 44.1405 46.0487 40.1115C48.7408 36.0825 50.1777 31.3456 50.1777 26.5C50.1709 20.0043 47.5874 13.7766 42.9943 9.18346C38.4011 4.5903 32.1734 2.00686 25.6777 2ZM12.9754 42.8726C14.3388 40.7403 16.217 38.9856 18.4369 37.7701C20.6567 36.5547 23.1469 35.9175 25.6777 35.9175C28.2086 35.9175 30.6987 36.5547 32.9186 37.7701C35.1385 38.9856 37.0167 40.7403 38.38 42.8726C34.7482 45.6971 30.2786 47.2306 25.6777 47.2306C21.0769 47.2306 16.6072 45.6971 12.9754 42.8726ZM18.1393 24.6154C18.1393 23.1244 18.5814 21.6669 19.4097 20.4272C20.2381 19.1875 21.4154 18.2213 22.7929 17.6508C24.1704 17.0802 25.6861 16.9309 27.1484 17.2218C28.6107 17.5126 29.954 18.2306 31.0082 19.2849C32.0625 20.3392 32.7805 21.6824 33.0714 23.1447C33.3622 24.607 33.2129 26.1227 32.6424 27.5002C32.0718 28.8777 31.1056 30.055 29.8659 30.8834C28.6262 31.7117 27.1687 32.1538 25.6777 32.1538C23.6784 32.1538 21.761 31.3596 20.3472 29.9459C18.9335 28.5321 18.1393 26.6147 18.1393 24.6154ZM41.1693 40.26C39.0674 37.2142 36.1119 34.8578 32.6744 33.4872C34.5209 32.0329 35.8683 30.0393 36.5292 27.7836C37.1901 25.528 37.1317 23.1225 36.3621 20.9016C35.5925 18.6807 34.15 16.7549 32.2351 15.3918C30.3202 14.0288 28.0282 13.2963 25.6777 13.2963C23.3273 13.2963 21.0352 14.0288 19.1204 15.3918C17.2055 16.7549 15.7629 18.6807 14.9934 20.9016C14.2238 23.1225 14.1654 25.528 14.8263 27.7836C15.4872 30.0393 16.8346 32.0329 18.6811 33.4872C15.2436 34.8578 12.2881 37.2142 10.1862 40.26C7.53024 37.2733 5.79428 33.5825 5.18737 29.632C4.58046 25.6815 5.12848 21.6398 6.76543 17.9935C8.40239 14.3473 11.0585 11.252 14.4139 9.08035C17.7693 6.90871 21.6809 5.75332 25.6777 5.75332C29.6746 5.75332 33.5862 6.90871 36.9416 9.08035C40.297 11.252 42.9531 14.3473 44.59 17.9935C46.227 21.6398 46.775 25.6815 46.1681 29.632C45.5612 33.5825 43.8252 37.2733 41.1693 40.26Z" fill="white"/>
<defs>
<filter id="filter0_d_76_1247" x="0.0356044" y="0.85787" width="53.1878" height="53.1878" filterUnits="userSpaceOnUse" color-interpolation-filters="sRGB">
<feFlood flood-opacity="0" result="BackgroundImageFix"/>
<feColorMatrix in="SourceAlpha" type="matrix" values="0 0 0 0 0 0 0 0 0 0 0 0 0 0 0 0 0 0 127 0" result="hardAlpha"/>
<feMorphology radius="0.190355" operator="dilate" in="SourceAlpha" result="effect1_dropShadow_76_1247"/>
<feOffset dx="0.951775" dy="0.951775"/>
<feGaussianBlur stdDeviation="0.951775"/>
<feColorMatrix type="matrix" values="0 0 0 0 0 0 0 0 0 0 0 0 0 0 0 0 0 0 0.25 0"/>
<feBlend mode="normal" in2="BackgroundImageFix" result="effect1_dropShadow_76_1247"/>
<feBlend mode="normal" in="SourceGraphic" in2="effect1_dropShadow_76_1247" result="shape"/>
</filter>
</defs>
</svg>
